<?xml version="1.0" encoding="UTF-8"?>
<!DOCTYPE svg PUBLIC "-//W3C//DTD SVG 1.1//EN" "http://www.w3.org/Graphics/SVG/1.1/DTD/svg11.dtd">
<svg version="1.2" width="729.21mm" height="616.3mm" viewBox="0 0 72921 61630" preserveAspectRatio="xMidYMid" fill-rule="evenodd" stroke-width="28.222" stroke-linejoin="round" xmlns="http://www.w3.org/2000/svg" xmlns:ooo="http://xml.openoffice.org/svg/export" xmlns:xlink="http://www.w3.org/1999/xlink" xmlns:presentation="http://sun.com/xmlns/staroffice/presentation" xmlns:smil="http://www.w3.org/2001/SMIL20/" xmlns:anim="urn:oasis:names:tc:opendocument:xmlns:animation:1.0" xml:space="preserve">
 <defs class="ClipPathGroup">
  <clipPath id="presentation_clip_path" clipPathUnits="userSpaceOnUse">
   <rect x="0" y="0" width="72921" height="61630"/>
  </clipPath>
  <clipPath id="presentation_clip_path_shrink" clipPathUnits="userSpaceOnUse">
   <rect x="72" y="61" width="72776" height="61507"/>
  </clipPath>
 </defs>
 <defs class="TextShapeIndex">
  <g ooo:slide="id1" ooo:id-list="id3 id4 id5 id6 id7 id8 id9 id10 id11 id12 id13 id14 id15 id16 id17 id18 id19 id20 id21 id22 id23 id24 id25 id26 id27 id28 id29 id30 id31 id32 id33 id34 id35 id36 id37 id38 id39 id40 id41 id42 id43 id44 id45 id46 id47 id48 id49 id50 id51 id52 id53 id54 id55 id56 id57 id58 id59 id60 id61 id62 id63 id64 id65 id66 id67 id68 id69 id70 id71 id72 id73 id74 id75 id76 id77 id78 id79 id80 id81 id82 id83 id84 id85"/>
 </defs>
 <defs class="EmbeddedBulletChars">
  <g id="bullet-char-template-57356" transform="scale(0.00048828125,-0.00048828125)">
   <path d="M 580,1141 L 1163,571 580,0 -4,571 580,1141 Z"/>
  </g>
  <g id="bullet-char-template-57354" transform="scale(0.00048828125,-0.00048828125)">
   <path d="M 8,1128 L 1137,1128 1137,0 8,0 8,1128 Z"/>
  </g>
  <g id="bullet-char-template-10146" transform="scale(0.00048828125,-0.00048828125)">
   <path d="M 174,0 L 602,739 174,1481 1456,739 174,0 Z M 1358,739 L 309,1346 659,739 1358,739 Z"/>
  </g>
  <g id="bullet-char-template-10132" transform="scale(0.00048828125,-0.00048828125)">
   <path d="M 2015,739 L 1276,0 717,0 1260,543 174,543 174,936 1260,936 717,1481 1274,1481 2015,739 Z"/>
  </g>
  <g id="bullet-char-template-10007" transform="scale(0.00048828125,-0.00048828125)">
   <path d="M 0,-2 C -7,14 -16,27 -25,37 L 356,567 C 262,823 215,952 215,954 215,979 228,992 255,992 264,992 276,990 289,987 310,991 331,999 354,1012 L 381,999 492,748 772,1049 836,1024 860,1049 C 881,1039 901,1025 922,1006 886,937 835,863 770,784 769,783 710,716 594,584 L 774,223 C 774,196 753,168 711,139 L 727,119 C 717,90 699,76 672,76 641,76 570,178 457,381 L 164,-76 C 142,-110 111,-127 72,-127 30,-127 9,-110 8,-76 1,-67 -2,-52 -2,-32 -2,-23 -1,-13 0,-2 Z"/>
  </g>
  <g id="bullet-char-template-10004" transform="scale(0.00048828125,-0.00048828125)">
   <path d="M 285,-33 C 182,-33 111,30 74,156 52,228 41,333 41,471 41,549 55,616 82,672 116,743 169,778 240,778 293,778 328,747 346,684 L 369,508 C 377,444 397,411 428,410 L 1163,1116 C 1174,1127 1196,1133 1229,1133 1271,1133 1292,1118 1292,1087 L 1292,965 C 1292,929 1282,901 1262,881 L 442,47 C 390,-6 338,-33 285,-33 Z"/>
  </g>
  <g id="bullet-char-template-9679" transform="scale(0.00048828125,-0.00048828125)">
   <path d="M 813,0 C 632,0 489,54 383,161 276,268 223,411 223,592 223,773 276,916 383,1023 489,1130 632,1184 813,1184 992,1184 1136,1130 1245,1023 1353,916 1407,772 1407,592 1407,412 1353,268 1245,161 1136,54 992,0 813,0 Z"/>
  </g>
  <g id="bullet-char-template-8226" transform="scale(0.00048828125,-0.00048828125)">
   <path d="M 346,457 C 273,457 209,483 155,535 101,586 74,649 74,723 74,796 101,859 155,911 209,963 273,989 346,989 419,989 480,963 531,910 582,859 608,796 608,723 608,648 583,586 532,535 482,483 420,457 346,457 Z"/>
  </g>
  <g id="bullet-char-template-8211" transform="scale(0.00048828125,-0.00048828125)">
   <path d="M -4,459 L 1135,459 1135,606 -4,606 -4,459 Z"/>
  </g>
  <g id="bullet-char-template-61548" transform="scale(0.00048828125,-0.00048828125)">
   <path d="M 173,740 C 173,903 231,1043 346,1159 462,1274 601,1332 765,1332 928,1332 1067,1274 1183,1159 1299,1043 1357,903 1357,740 1357,577 1299,437 1183,322 1067,206 928,148 765,148 601,148 462,206 346,322 231,437 173,577 173,740 Z"/>
  </g>
 </defs>
 <g>
  <g id="id2" class="Master_Slide">
   <g id="bg-id2" class="Background"/>
   <g id="bo-id2" class="BackgroundObjects"/>
  </g>
 </g>
 <g class="SlideGroup">
  <g>
   <g id="container-id1">
    <g id="id1" class="Slide" clip-path="url(#presentation_clip_path)">
     <g class="Page">
      <g class="com.sun.star.drawing.ClosedBezierShape">
       <g id="id3">
        <rect class="BoundingBox" stroke="none" fill="none" x="41192" y="470" width="31728" height="61157"/>
        <path fill="rgb(68,50,5)" stroke="none" d="M 67190,53700 C 67190,53240 67254,46886 67331,39581 67409,32276 67472,26009 67472,25655 L 67472,25011 67137,25011 66802,25011 66802,25151 C 66802,25255 66782,25304 66723,25345 L 66643,25401 66514,37985 C 66387,50364 66386,50570 66453,50618 66495,50649 66520,50709 66520,50781 66520,50866 66538,50901 66589,50915 66656,50932 66657,50969 66636,52735 L 66614,54538 66902,54538 67190,54538 67191,53700 67190,53700 Z M 67417,61604 C 67374,61595 67299,61511 67232,61394 L 67120,61198 67120,59826 67120,58453 66786,58453 66450,58453 66450,58575 C 66450,58661 66430,58709 66380,58735 66314,58770 66309,58809 66309,59292 66309,59578 66299,60035 66286,60309 L 66263,60807 66080,60865 C 65980,60896 65855,60922 65803,60922 65685,60922 41214,57640 41195,57621 41175,57602 41266,4607 41287,4586 41296,4576 42025,4570 42906,4571 L 44508,4574 44508,3740 44508,2906 44384,2847 C 44281,2798 44261,2769 44260,2673 44259,2609 44374,2094 44515,1528 44745,601 44778,496 44848,478 44891,467 44948,467 44974,477 45026,497 45532,2508 45531,2690 45531,2766 45504,2801 45412,2845 L 45293,2901 45275,3735 C 45265,4193 45267,4579 45279,4592 45292,4605 45659,4650 46095,4693 47081,4788 48450,5017 49447,5254 49864,5353 50233,5443 50267,5454 50324,5471 50329,5420 50329,4713 L 50329,3952 50187,3880 C 50106,3839 50046,3783 50045,3747 50045,3714 50168,3190 50318,2584 L 50592,1482 50725,1482 C 50798,1482 50858,1491 50858,1503 50858,1515 50969,1983 51105,2545 51241,3106 51352,3628 51352,3703 51352,3828 51341,3845 51228,3885 L 51105,3930 51105,4816 51105,5702 51590,5852 C 52698,6194 55192,7217 56002,7662 56144,7740 56265,7798 56272,7791 56278,7784 56295,7500 56309,7160 L 56335,6541 56189,6475 C 56064,6419 56044,6394 56044,6300 56044,6240 56168,5707 56319,5115 L 56594,4039 56721,4028 56848,4018 56903,4258 C 56933,4390 57054,4895 57172,5380 57290,5865 57382,6293 57377,6332 57371,6374 57312,6428 57234,6465 L 57102,6527 57102,7384 57102,8241 57269,8322 C 57901,8629 60613,10324 61423,10919 61559,11019 61849,11230 62067,11389 L 62464,11678 62464,11014 62464,10349 62341,10290 C 62232,10238 62217,10216 62217,10099 62217,10026 62340,9486 62490,8899 L 62764,7832 62896,7832 C 62969,7832 63028,7837 63028,7843 63028,7849 63148,8349 63293,8953 63439,9558 63558,10093 63558,10142 63558,10213 63529,10242 63417,10287 L 63275,10344 63275,10860 C 63275,11144 63265,11575 63253,11818 L 63231,12259 64056,12913 C 64510,13273 65297,13929 65807,14372 L 66733,15176 66733,16099 C 66733,16984 66736,17024 66803,17066 66855,17098 66874,17148 66874,17251 66874,17361 66886,17392 66935,17392 67000,17392 67003,17637 66970,20399 L 66961,21131 67231,21131 C 67444,21131 67505,21119 67522,21075 67534,21044 67543,20572 67543,20026 67543,19479 67554,18115 67567,16994 L 67590,14956 68845,14168 70101,13380 70123,12290 C 70135,11691 70146,11076 70149,10924 L 70154,10647 71527,10659 C 72282,10666 72908,10680 72919,10691 L 72919,10765 C 72908,12854 72323,61567 72308,61619 72304,61634 67495,61619 67417,61604 Z"/>
       </g>
      </g>
      <g class="com.sun.star.drawing.ClosedBezierShape">
       <g id="id4">
        <rect class="BoundingBox" stroke="none" fill="none" x="-1" y="0" width="36183" height="61629"/>
        <path fill="rgb(68,50,5)" stroke="none" d="M 6020,53648 C 6020,53158 5956,46629 5879,39140 5802,31651 5738,25408 5738,25267 L 5738,25011 5574,25011 5410,25011 5433,26431 C 5445,27212 5511,33566 5580,40551 5648,47536 5713,53540 5725,53895 L 5745,54538 5883,54538 6020,54538 6020,53648 Z M 577,60420 C 511,56769 -23,10723 1,10699 16,10684 643,10671 1393,10671 L 2757,10671 2774,12021 2792,13371 4044,14157 5297,14943 5319,15788 C 5330,16253 5342,17205 5345,17903 5348,18602 5360,19614 5373,20154 L 5396,21134 5541,21124 5685,21113 5675,19685 C 5670,18899 5657,17572 5645,16736 L 5624,15217 6713,14405 C 7312,13958 8202,13319 8692,12983 L 9583,12374 9583,12034 C 9583,11847 9573,11395 9560,11030 L 9536,10365 9421,10310 C 9358,10280 9298,10223 9288,10183 9273,10128 9624,8369 9746,7881 9762,7816 9791,7796 9867,7796 9922,7796 9976,7810 9986,7827 10028,7895 10500,10005 10500,10125 10500,10236 10484,10260 10377,10311 L 10253,10370 10253,11149 C 10253,11762 10263,11922 10298,11902 10322,11887 10754,11618 11259,11304 12551,10498 14087,9638 15532,8913 16213,8570 16788,8290 16810,8290 16839,8290 16850,8033 16850,7378 L 16850,6466 16709,6403 C 16609,6358 16568,6318 16568,6265 16569,6224 16677,5683 16809,5062 L 17049,3933 17170,3923 17291,3913 17548,5070 C 17689,5706 17804,6252 17804,6283 17803,6314 17740,6368 17662,6403 L 17521,6466 17521,7216 17521,7966 18076,7718 C 19434,7111 22272,6098 23534,5770 23806,5700 24064,5627 24108,5609 24187,5575 24187,5574 24187,4719 24186,4248 24177,3829 24166,3789 24155,3748 24092,3689 24026,3657 23928,3610 23905,3579 23905,3493 23905,3435 24008,2897 24134,2298 24260,1699 24363,1199 24363,1187 24363,1174 24417,1164 24483,1164 24578,1164 24606,1180 24621,1244 24821,2111 25109,3535 25093,3578 25081,3608 25015,3660 24947,3693 L 24822,3752 24822,4591 24822,5429 24990,5380 C 25082,5354 25657,5228 26268,5102 27587,4829 29225,4578 30325,4482 30762,4443 31202,4402 31304,4391 L 31489,4369 31489,3461 31489,2553 31366,2494 C 31261,2444 31243,2417 31243,2318 31243,2253 31346,1712 31472,1115 31598,519 31701,24 31701,15 31701,7 31757,0 31825,0 31893,0 31948,13 31948,29 31948,45 32051,546 32177,1142 32304,1739 32407,2279 32407,2342 32407,2438 32387,2466 32283,2515 L 32160,2574 32160,3450 32160,4325 34171,4310 36181,4295 36181,32608 36181,60922 21136,60922 6092,60922 6082,59697 6073,58471 5919,58460 5765,58449 5778,59818 5791,61187 5676,61385 C 5585,61543 5538,61589 5451,61606 5391,61618 4274,61628 2970,61628 L 599,61628 577,60420 Z"/>
       </g>
      </g>
      <g class="com.sun.star.drawing.ClosedBezierShape">
       <g id="id5">
        <rect class="BoundingBox" stroke="none" fill="none" x="7250" y="56988" width="2740" height="2702"/>
        <path fill="rgb(212,234,107)" stroke="none" d="M 9989,59371 L 9989,59072 9707,59030 C 8757,58889 7769,58140 7373,57261 L 7250,56989 7270,57956 C 7281,58488 7290,59095 7290,59306 L 7290,59689 8639,59679 9989,59670 9989,59371 Z"/>
       </g>
      </g>
      <g class="com.sun.star.drawing.ClosedBezierShape">
       <g id="id6">
        <rect class="BoundingBox" stroke="none" fill="none" x="10677" y="56450" width="2859" height="3240"/>
        <path fill="rgb(212,234,107)" stroke="none" d="M 13530,58515 C 13526,57496 13487,56189 13470,56495 13464,56592 13211,57278 13114,57460 13091,57502 12961,57683 12825,57861 12479,58314 12010,58661 11469,58867 11256,58947 10991,59024 10880,59037 L 10677,59061 10677,59374 10677,59688 12105,59688 13534,59688 13530,58515 Z"/>
       </g>
      </g>
      <g class="com.sun.star.drawing.ClosedBezierShape">
       <g id="id7">
        <rect class="BoundingBox" stroke="none" fill="none" x="14350" y="56720" width="2836" height="2963"/>
        <path fill="rgb(212,234,107)" stroke="none" d="M 17184,59371 L 17184,59072 16902,59029 C 16745,59006 16463,58924 16267,58846 15476,58531 14830,57888 14516,57103 L 14362,56721 14353,58160 C 14348,58952 14351,59620 14361,59644 14374,59679 14677,59687 15781,59679 L 17184,59670 17184,59371 Z"/>
       </g>
      </g>
      <g class="com.sun.star.drawing.ClosedBezierShape">
       <g id="id8">
        <rect class="BoundingBox" stroke="none" fill="none" x="17842" y="56272" width="2890" height="3417"/>
        <path fill="rgb(212,234,107)" stroke="none" d="M 20727,57880 C 20723,56252 20718,56103 20677,56389 20566,57160 20089,57958 19453,58434 19064,58725 18524,58967 18120,59029 L 17856,59070 17845,59332 C 17839,59475 17843,59614 17853,59640 17868,59679 18136,59688 19301,59688 L 20731,59688 20727,57880 Z"/>
       </g>
      </g>
      <g class="com.sun.star.drawing.ClosedBezierShape">
       <g id="id9">
        <rect class="BoundingBox" stroke="none" fill="none" x="21518" y="56479" width="2885" height="3210"/>
        <path fill="rgb(212,234,107)" stroke="none" d="M 24391,59380 L 24381,59072 24099,59030 C 23674,58968 23150,58736 22740,58427 22555,58288 22370,58130 22329,58075 22288,58021 22168,57864 22062,57726 21851,57449 21590,56859 21539,56539 21518,56408 21513,56489 21525,56813 21534,57065 21541,57815 21541,58480 L 21541,59688 22971,59688 24401,59688 24391,59380 Z"/>
       </g>
      </g>
      <g class="com.sun.star.drawing.ClosedBezierShape">
       <g id="id10">
        <rect class="BoundingBox" stroke="none" fill="none" x="25035" y="56242" width="2893" height="3447"/>
        <path fill="rgb(212,234,107)" stroke="none" d="M 27923,57862 C 27919,56196 27915,56066 27873,56375 27763,57173 27310,57940 26655,58437 26388,58640 26233,58726 25911,58852 25660,58950 25415,59020 25270,59036 L 25035,59061 25035,59351 C 25035,59510 25045,59651 25058,59664 25071,59677 25722,59688 26505,59688 L 27927,59688 27923,57862 Z"/>
       </g>
      </g>
      <g class="com.sun.star.drawing.ClosedBezierShape">
       <g id="id11">
        <rect class="BoundingBox" stroke="none" fill="none" x="28706" y="56416" width="2891" height="3274"/>
        <path fill="rgb(212,234,107)" stroke="none" d="M 31595,59375 L 31595,59063 31357,59038 C 31212,59024 30968,58957 30731,58866 29716,58478 28918,57529 28753,56513 28715,56279 28709,56406 28706,57592 28704,58331 28713,59105 28725,59312 L 28748,59688 30172,59688 31595,59688 31595,59375 Z"/>
       </g>
      </g>
      <g class="com.sun.star.drawing.ClosedBezierShape">
       <g id="id12">
        <rect class="BoundingBox" stroke="none" fill="none" x="32231" y="56556" width="2847" height="3135"/>
        <path fill="rgb(212,234,107)" stroke="none" d="M 35076,58030 C 35078,57128 35068,56469 35054,56566 35039,56663 34958,56912 34873,57119 34544,57921 33908,58546 33103,58857 32862,58950 32612,59020 32468,59036 L 32231,59061 32231,59375 32231,59689 33651,59679 35071,59670 35076,58030 Z"/>
       </g>
      </g>
      <g class="com.sun.star.drawing.ClosedBezierShape">
       <g id="id13">
        <rect class="BoundingBox" stroke="none" fill="none" x="7899" y="53508" width="4817" height="4729"/>
        <path fill="rgb(175,208,149)" stroke="none" d="M 12706,56142 C 12840,54645 11433,53319 9935,53531 9329,53617 8699,53978 8349,54441 7295,55833 8197,57894 9988,58188 10353,58248 10311,58247 10629,58205 11726,58058 12614,57177 12706,56142 Z"/>
       </g>
      </g>
      <g class="com.sun.star.drawing.ClosedBezierShape">
       <g id="id14">
        <rect class="BoundingBox" stroke="none" fill="none" x="15105" y="53510" width="4821" height="4729"/>
        <path fill="rgb(175,208,149)" stroke="none" d="M 17803,58205 C 18877,58074 19791,57198 19909,56185 20084,54676 18668,53314 17149,53533 16281,53658 15550,54227 15224,55031 15106,55323 15103,55344 15105,55807 15107,56279 15108,56287 15248,56628 15589,57464 16329,58060 17184,58190 17340,58214 17475,58235 17485,58237 17495,58240 17638,58225 17803,58205 Z"/>
       </g>
      </g>
      <g class="com.sun.star.drawing.ClosedBezierShape">
       <g id="id15">
        <rect class="BoundingBox" stroke="none" fill="none" x="22305" y="53504" width="4830" height="4734"/>
        <path fill="rgb(175,208,149)" stroke="none" d="M 27114,55636 C 26960,54539 26057,53657 24946,53520 23909,53393 22832,54044 22420,55049 22310,55319 22305,55351 22305,55807 22304,56275 22307,56289 22437,56619 22770,57463 23557,58092 24417,58201 24553,58218 24675,58234 24688,58237 24701,58239 24836,58225 24988,58205 26302,58032 27283,56847 27114,55636 Z"/>
       </g>
      </g>
      <g class="com.sun.star.drawing.ClosedBezierShape">
       <g id="id16">
        <rect class="BoundingBox" stroke="none" fill="none" x="29477" y="53509" width="4848" height="4727"/>
        <path fill="rgb(175,208,149)" stroke="none" d="M 32248,58193 C 33122,58059 33851,57479 34190,56648 34320,56329 34323,56308 34323,55879 34323,55449 34320,55429 34188,55103 33751,54023 32674,53376 31578,53534 30707,53659 29960,54243 29633,55053 29484,55423 29446,55731 29500,56126 29641,57151 30502,58021 31542,58190 31911,58249 31882,58249 32248,58193 Z"/>
       </g>
      </g>
      <g class="com.sun.star.drawing.ClosedBezierShape">
       <g id="id17">
        <rect class="BoundingBox" stroke="none" fill="none" x="25005" y="50628" width="2918" height="4732"/>
        <path fill="rgb(212,234,107)" stroke="none" d="M 26455,50630 L 25017,50639 25008,51653 C 25000,52452 25008,52668 25043,52668 25241,52671 25589,52756 25906,52879 26721,53194 27361,53828 27687,54644 27803,54934 27858,55129 27880,55331 27899,55516 27913,54767 27919,53162 27924,51813 27920,50690 27911,50665 27898,50630 27587,50623 26455,50630 Z"/>
       </g>
      </g>
      <g class="com.sun.star.drawing.ClosedBezierShape">
       <g id="id18">
        <rect class="BoundingBox" stroke="none" fill="none" x="20704" y="55355" width="24" height="176"/>
        <path fill="rgb(175,208,149)" stroke="none" d="M 20720,55376 C 20712,55332 20705,55359 20704,55437 20704,55514 20711,55550 20720,55517 20729,55483 20729,55419 20720,55376 Z"/>
       </g>
      </g>
      <g class="com.sun.star.drawing.ClosedBezierShape">
       <g id="id19">
        <rect class="BoundingBox" stroke="none" fill="none" x="28703" y="50621" width="2895" height="4730"/>
        <path fill="rgb(212,234,107)" stroke="none" d="M 28944,54616 C 29271,53813 29893,53207 30730,52874 30964,52781 31205,52704 31265,52704 31326,52703 31426,52693 31487,52681 L 31597,52659 31588,51649 31579,50639 30141,50630 28703,50621 28707,53099 C 28711,55188 28718,55531 28754,55278 28781,55087 28850,54847 28944,54616 Z"/>
       </g>
      </g>
      <g class="com.sun.star.drawing.ClosedBezierShape">
       <g id="id20">
        <rect class="BoundingBox" stroke="none" fill="none" x="21506" y="50621" width="2860" height="4640"/>
        <path fill="rgb(212,234,107)" stroke="none" d="M 21734,54658 C 22077,53799 22692,53191 23543,52867 23780,52777 24026,52703 24090,52702 24153,52702 24242,52692 24285,52681 L 24365,52659 24356,51649 24347,50639 22927,50630 21507,50621 21511,53029 C 21514,54353 21528,55354 21543,55252 21557,55151 21643,54883 21734,54658 Z"/>
       </g>
      </g>
      <g class="com.sun.star.drawing.ClosedBezierShape">
       <g id="id21">
        <rect class="BoundingBox" stroke="none" fill="none" x="14295" y="50621" width="2848" height="4608"/>
        <path fill="rgb(212,234,107)" stroke="none" d="M 14967,53892 C 15334,53417 15764,53091 16300,52881 16607,52762 16943,52676 17131,52668 17141,52668 17145,52207 17139,51645 L 17129,50622 15722,50622 C 14948,50622 14308,50633 14300,50648 14292,50663 14295,51722 14306,53003 14316,54283 14331,55283 14337,55225 14343,55167 14428,54921 14525,54678 14670,54315 14748,54177 14967,53892 Z"/>
       </g>
      </g>
      <g class="com.sun.star.drawing.ClosedBezierShape">
       <g id="id22">
        <rect class="BoundingBox" stroke="none" fill="none" x="32231" y="50621" width="2853" height="4583"/>
        <path fill="rgb(212,234,107)" stroke="none" d="M 33643,50622 L 32231,50622 32231,51645 C 32231,52207 32243,52668 32258,52668 32447,52673 32804,52762 33108,52879 33930,53195 34553,53817 34889,54655 34979,54882 35057,55126 35062,55199 35067,55272 35075,54291 35080,53020 35085,51750 35082,50690 35072,50666 35059,50631 34741,50622 33643,50622 Z"/>
       </g>
      </g>
      <g class="com.sun.star.drawing.ClosedBezierShape">
       <g id="id23">
        <rect class="BoundingBox" stroke="none" fill="none" x="10606" y="50621" width="2889" height="4640"/>
        <path fill="rgb(212,234,107)" stroke="none" d="M 13455,50622 L 12031,50622 10606,50622 10606,51645 C 10606,52207 10618,52668 10633,52669 10864,52679 11193,52759 11506,52881 12338,53205 12969,53832 13302,54662 13391,54885 13467,55118 13471,55181 13497,55588 13501,54361 13480,52641 L 13455,50622 Z"/>
       </g>
      </g>
      <g class="com.sun.star.drawing.ClosedBezierShape">
       <g id="id24">
        <rect class="BoundingBox" stroke="none" fill="none" x="17803" y="50622" width="2888" height="4563"/>
        <path fill="rgb(212,234,107)" stroke="none" d="M 19233,50622 L 17803,50622 17803,51645 C 17803,52439 17813,52668 17847,52668 18050,52672 18403,52759 18716,52883 19537,53208 20169,53839 20497,54660 20587,54884 20664,55118 20669,55181 20673,55244 20682,54264 20687,53003 20692,51742 20689,50690 20679,50666 20666,50631 20344,50622 19233,50622 Z"/>
       </g>
      </g>
      <g class="com.sun.star.drawing.ClosedBezierShape">
       <g id="id25">
        <rect class="BoundingBox" stroke="none" fill="none" x="7204" y="50621" width="2733" height="4131"/>
        <path fill="rgb(212,234,107)" stroke="none" d="M 9089,52886 C 9293,52805 9507,52731 9565,52722 9624,52713 9731,52697 9804,52685 L 9936,52664 9936,51860 C 9936,51417 9926,50957 9913,50838 L 9890,50621 8548,50630 7205,50639 7215,52665 C 7221,53778 7235,54714 7246,54743 7259,54775 7302,54703 7358,54557 7416,54405 7551,54184 7733,53943 8113,53440 8550,53100 9089,52886 Z"/>
       </g>
      </g>
      <g class="com.sun.star.drawing.ClosedBezierShape">
       <g id="id26">
        <rect class="BoundingBox" stroke="none" fill="none" x="21472" y="46424" width="2891" height="2993"/>
        <path fill="rgb(255,245,206)" stroke="none" d="M 24359,49228 C 24365,49131 24360,48460 24346,47738 L 24321,46424 22896,46424 21472,46424 21472,47899 C 21472,48711 21482,49386 21495,49399 21509,49412 22156,49419 22933,49414 L 24347,49405 24359,49228 Z"/>
       </g>
      </g>
      <g class="com.sun.star.drawing.PolyPolygonShape">
       <g id="id27">
        <rect class="BoundingBox" stroke="none" fill="none" x="24999" y="46423" width="2894" height="3000"/>
        <path fill="rgb(255,245,206)" stroke="none" d="M 27892,47923 L 27892,46424 26446,46424 24999,46424 24999,47923 24999,49422 26446,49422 27892,49422 27892,47923 Z"/>
       </g>
      </g>
      <g class="com.sun.star.drawing.PolyPolygonShape">
       <g id="id28">
        <rect class="BoundingBox" stroke="none" fill="none" x="28703" y="46423" width="2859" height="3000"/>
        <path fill="rgb(255,245,206)" stroke="none" d="M 31561,47923 L 31561,46424 30132,46424 28703,46424 28703,47923 28703,49422 30132,49422 31561,49422 31561,47923 Z"/>
       </g>
      </g>
      <g class="com.sun.star.drawing.ClosedBezierShape">
       <g id="id29">
        <rect class="BoundingBox" stroke="none" fill="none" x="32196" y="46424" width="2894" height="2993"/>
        <path fill="rgb(255,245,206)" stroke="none" d="M 35080,47914 L 35089,46424 33643,46424 32196,46424 32196,47899 C 32196,48711 32207,49386 32220,49399 32233,49412 32880,49419 33657,49414 L 35071,49405 35080,47914 Z"/>
       </g>
      </g>
      <g class="com.sun.star.drawing.ClosedBezierShape">
       <g id="id30">
        <rect class="BoundingBox" stroke="none" fill="none" x="7138" y="46424" width="2764" height="2964"/>
        <path fill="rgb(255,245,206)" stroke="none" d="M 9901,48281 C 9901,47673 9890,47006 9878,46799 L 9855,46424 8496,46424 7138,46424 7161,47276 C 7174,47745 7184,48411 7184,48758 L 7184,49387 8542,49387 9901,49387 9901,48281 Z"/>
       </g>
      </g>
      <g class="com.sun.star.drawing.ClosedBezierShape">
       <g id="id31">
        <rect class="BoundingBox" stroke="none" fill="none" x="10571" y="46424" width="2906" height="2964"/>
        <path fill="rgb(255,245,206)" stroke="none" d="M 13452,48376 C 13439,47820 13428,47153 13428,46894 L 13428,46424 12000,46424 10571,46424 10571,47905 10571,49387 12023,49387 13475,49387 13452,48376 Z"/>
       </g>
      </g>
      <g class="com.sun.star.drawing.ClosedBezierShape">
       <g id="id32">
        <rect class="BoundingBox" stroke="none" fill="none" x="14229" y="46424" width="2905" height="2964"/>
        <path fill="rgb(255,245,206)" stroke="none" d="M 17132,48493 C 17132,48001 17122,47335 17109,47011 L 17086,46424 15658,46424 14229,46424 14252,46662 C 14264,46793 14275,47459 14275,48143 L 14275,49387 15704,49387 17132,49387 17132,48493 Z"/>
       </g>
      </g>
      <g class="com.sun.star.drawing.ClosedBezierShape">
       <g id="id33">
        <rect class="BoundingBox" stroke="none" fill="none" x="17767" y="46424" width="2941" height="2964"/>
        <path fill="rgb(255,245,206)" stroke="none" d="M 20683,48799 C 20671,48476 20660,47809 20660,47318 L 20660,46424 19214,46424 17767,46424 17767,47265 C 17767,47727 17778,48394 17791,48746 L 17814,49387 19260,49387 20707,49387 20683,48799 Z"/>
       </g>
      </g>
      <g class="com.sun.star.drawing.ClosedBezierShape">
       <g id="id34">
        <rect class="BoundingBox" stroke="none" fill="none" x="7036" y="36158" width="6402" height="9068"/>
        <path fill="rgb(247,209,213)" stroke="none" d="M 9865,44894 L 9865,44565 9724,44509 C 9605,44462 9583,44438 9585,44354 9586,44299 9694,43754 9824,43143 L 10061,42032 10173,42021 C 10305,42008 10262,41879 10589,43261 10717,43802 10817,44278 10811,44320 10805,44361 10740,44434 10667,44481 L 10533,44567 10543,44887 10553,45207 11995,45216 13437,45225 13415,43470 C 13403,42504 13383,40464 13371,38936 L 13349,36158 11907,36158 10465,36158 10465,36613 10465,37068 10611,37126 10757,37184 10734,37368 C 10721,37469 10612,38012 10491,38574 L 10271,39597 10161,39608 C 10094,39615 10044,39601 10034,39573 10025,39548 9900,39030 9757,38422 9563,37596 9507,37303 9534,37258 9554,37225 9621,37176 9683,37148 L 9795,37098 9795,36628 9795,36158 8416,36158 7036,36158 7057,36837 C 7068,37211 7086,38723 7096,40197 7106,41672 7124,43406 7136,44051 L 7159,45224 8512,45224 9865,45224 9865,44894 Z"/>
       </g>
      </g>
      <g class="com.sun.star.drawing.ClosedBezierShape">
       <g id="id35">
        <rect class="BoundingBox" stroke="none" fill="none" x="14162" y="36158" width="6511" height="9067"/>
        <path fill="rgb(247,209,213)" stroke="none" d="M 17097,44894 L 17097,44565 16956,44509 C 16867,44474 16815,44431 16815,44393 16815,44333 17257,42198 17295,42074 17310,42027 17343,42013 17423,42021 L 17532,42032 17773,43072 C 17905,43645 18013,44181 18014,44264 18014,44400 18002,44423 17891,44488 L 17767,44561 17767,44893 17767,45224 19220,45224 20672,45224 20648,42711 C 20636,41328 20625,39288 20625,38178 L 20625,36158 19161,36158 17697,36158 17697,36611 17697,37064 17838,37120 C 17959,37167 17979,37191 17979,37281 17979,37338 17876,37877 17750,38478 17624,39079 17520,39581 17520,39593 17520,39605 17465,39615 17397,39615 17329,39615 17274,39606 17274,39595 17274,39583 17162,39092 17027,38504 16891,37915 16780,37397 16780,37351 16781,37242 16811,37202 16947,37132 L 17062,37073 17061,36695 C 17061,36487 17051,36281 17040,36237 L 17018,36158 15590,36158 14162,36158 14183,37296 C 14194,37921 14214,39949 14226,41802 14237,43655 14254,45183 14263,45198 14272,45212 14913,45224 15688,45224 L 17097,45224 17097,44894 Z"/>
       </g>
      </g>
      <g class="com.sun.star.drawing.ClosedBezierShape">
       <g id="id36">
        <rect class="BoundingBox" stroke="none" fill="none" x="21436" y="36158" width="6457" height="9067"/>
        <path fill="rgb(247,209,213)" stroke="none" d="M 24329,44891 L 24329,44558 24206,44514 C 24094,44473 24082,44456 24082,44334 24082,44231 24401,42610 24524,42091 24540,42024 24563,42012 24655,42021 L 24766,42032 25005,43090 C 25136,43672 25244,44208 25245,44282 25246,44398 25230,44425 25123,44488 L 24999,44561 24999,44893 24999,45224 26446,45224 27892,45224 27892,41670 C 27892,39715 27882,37675 27869,37137 L 27846,36158 26405,36158 24964,36158 24964,36610 24964,37062 25088,37121 C 25193,37171 25211,37197 25211,37300 25211,37367 25124,37839 25017,38350 24725,39749 24764,39621 24634,39608 L 24523,39597 24287,38557 C 24157,37984 24049,37448 24048,37365 24047,37229 24059,37207 24170,37141 L 24294,37068 24294,36613 24294,36158 22865,36158 21436,36158 21436,38939 C 21436,40469 21447,42509 21460,43472 L 21483,45224 22906,45224 24329,45224 24329,44891 Z"/>
       </g>
      </g>
      <g class="com.sun.star.drawing.ClosedBezierShape">
       <g id="id37">
        <rect class="BoundingBox" stroke="none" fill="none" x="28668" y="36126" width="6405" height="9099"/>
        <path fill="rgb(247,209,213)" stroke="none" d="M 31561,44896 L 31561,44567 31437,44508 C 31331,44457 31314,44432 31314,44327 31314,44230 31666,42469 31761,42091 31777,42025 31801,42012 31891,42021 L 32000,42032 32237,43108 C 32367,43699 32475,44231 32476,44289 32477,44424 32452,44459 32309,44517 L 32193,44564 32204,44885 32214,45207 33642,45207 35071,45207 35059,40673 C 35053,38180 35042,36135 35036,36129 35029,36122 34388,36128 33610,36142 L 32196,36168 32196,36615 32196,37062 32319,37121 C 32432,37175 32443,37193 32442,37330 32442,37413 32342,37957 32219,38539 L 31996,39597 31887,39608 C 31807,39616 31774,39602 31759,39555 31674,39274 31314,37494 31314,37356 31314,37189 31321,37177 31437,37121 L 31561,37062 31561,36610 31561,36158 30115,36158 28668,36158 28668,40668 C 28668,43148 28679,45188 28692,45201 28705,45214 29356,45224 30138,45224 L 31561,45224 31561,44896 Z"/>
       </g>
      </g>
      <g class="com.sun.star.drawing.ClosedBezierShape">
       <g id="id38">
        <rect class="BoundingBox" stroke="none" fill="none" x="6867" y="13224" width="2893" height="21336"/>
        <path fill="rgb(222,220,230)" stroke="none" d="M 9759,33420 C 9758,31563 9586,13242 9569,13225 9546,13201 9005,13569 7881,14373 L 6867,15098 6867,16070 C 6867,16605 6907,20916 6955,25650 7003,30384 7042,34325 7043,34408 L 7043,34558 8401,34558 9759,34558 9759,33420 Z"/>
       </g>
      </g>
      <g class="com.sun.star.drawing.ClosedBezierShape">
       <g id="id39">
        <rect class="BoundingBox" stroke="none" fill="none" x="10252" y="11414" width="3111" height="23546"/>
        <path fill="rgb(222,220,230)" stroke="none" d="M 13342,34209 C 13331,33797 13288,28507 13246,22454 13204,16400 13157,11433 13141,11415 13113,11383 11544,12307 10667,12873 L 10252,13141 10271,14111 C 10281,14644 10322,19200 10361,24235 10399,29270 10440,33742 10452,34174 L 10473,34959 11918,34959 13362,34959 13342,34209 Z"/>
       </g>
      </g>
      <g class="com.sun.star.drawing.ClosedBezierShape">
       <g id="id40">
        <rect class="BoundingBox" stroke="none" fill="none" x="13993" y="9418" width="3035" height="25543"/>
        <path fill="rgb(222,220,230)" stroke="none" d="M 17026,33910 C 17026,33333 16994,28241 16956,22595 16918,16949 16886,11674 16886,10874 L 16885,9419 15889,9916 C 15341,10190 14690,10525 14443,10661 L 13993,10908 13993,11283 C 13993,11490 14033,16787 14081,23054 14129,29321 14168,34563 14169,34704 L 14169,34960 15598,34960 17027,34960 17026,33910 Z"/>
       </g>
      </g>
      <g class="com.sun.star.drawing.ClosedBezierShape">
       <g id="id41">
        <rect class="BoundingBox" stroke="none" fill="none" x="17562" y="7947" width="3030" height="27014"/>
        <path fill="rgb(222,220,230)" stroke="none" d="M 20591,33840 C 20594,30699 20477,8644 20456,8321 L 20431,7947 19637,8254 C 19201,8422 18558,8687 18208,8841 L 17573,9122 17563,10391 C 17558,11088 17586,16731 17625,22930 17665,29129 17697,34372 17697,34580 L 17697,34960 19143,34960 20590,34960 20591,33840 Z"/>
       </g>
      </g>
      <g class="com.sun.star.drawing.ClosedBezierShape">
       <g id="id42">
        <rect class="BoundingBox" stroke="none" fill="none" x="21291" y="6774" width="3014" height="28187"/>
        <path fill="rgb(222,220,230)" stroke="none" d="M 24281,30611 C 24268,28219 24240,21881 24219,16526 24198,11171 24174,6783 24167,6775 24140,6747 22820,7126 22061,7381 L 21292,7638 21293,8995 C 21294,11870 21408,34873 21421,34914 21431,34949 21752,34959 22869,34959 L 24304,34959 24281,30611 Z"/>
       </g>
      </g>
      <g class="com.sun.star.drawing.ClosedBezierShape">
       <g id="id43">
        <rect class="BoundingBox" stroke="none" fill="none" x="24857" y="5969" width="3000" height="28991"/>
        <path fill="rgb(222,220,230)" stroke="none" d="M 27856,32322 C 27856,28808 27783,5983 27771,5971 27733,5933 24908,6528 24862,6584 24837,6614 24923,34830 24948,34914 24959,34949 25282,34959 26408,34959 L 27856,34959 27856,32322 Z"/>
       </g>
      </g>
      <g class="com.sun.star.drawing.ClosedBezierShape">
       <g id="id44">
        <rect class="BoundingBox" stroke="none" fill="none" x="28588" y="5525" width="2961" height="29436"/>
        <path fill="rgb(222,220,230)" stroke="none" d="M 31543,34915 C 31551,34891 31547,28268 31533,20198 L 31508,5525 31296,5533 C 31032,5543 29201,5737 28849,5791 L 28588,5832 28611,17406 C 28623,23772 28643,30325 28655,31970 L 28678,34960 30103,34960 C 31211,34960 31531,34950 31543,34915 Z"/>
       </g>
      </g>
      <g class="com.sun.star.drawing.ClosedBezierShape">
       <g id="id45">
        <rect class="BoundingBox" stroke="none" fill="none" x="32161" y="5433" width="2893" height="29529"/>
        <path fill="rgb(222,220,230)" stroke="none" d="M 35053,20196 L 35053,5433 34110,5433 C 33591,5433 32940,5443 32663,5456 L 32161,5479 32161,12488 C 32161,16343 32171,22976 32184,27228 L 32208,34960 33631,34960 35053,34960 35053,20196 Z"/>
       </g>
      </g>
      <g class="com.sun.star.drawing.ClosedBezierShape">
       <g id="id46">
        <rect class="BoundingBox" stroke="none" fill="none" x="62815" y="57441" width="2108" height="2072"/>
        <path fill="rgb(212,234,107)" stroke="none" d="M 64908,58481 C 64920,57914 64925,57446 64920,57441 64914,57436 64835,57534 64743,57659 64631,57811 64475,57959 64273,58105 64013,58293 63906,58344 63496,58476 63235,58561 62985,58629 62940,58629 62841,58629 62817,58705 62816,59022 L 62816,59256 63301,59319 C 63568,59353 63976,59409 64209,59442 64442,59476 64690,59505 64759,59507 L 64886,59511 64908,58481 Z"/>
       </g>
      </g>
      <g class="com.sun.star.drawing.ClosedBezierShape">
       <g id="id47">
        <rect class="BoundingBox" stroke="none" fill="none" x="59843" y="56688" width="2199" height="2468"/>
        <path fill="rgb(212,234,107)" stroke="none" d="M 62040,58570 L 61837,58526 C 61276,58402 60518,57779 60119,57113 59997,56909 59888,56718 59878,56689 59868,56660 59854,57134 59847,57743 59839,58460 59847,58855 59870,58863 59899,58873 61837,59139 61996,59154 62028,59157 62040,59079 62040,58864 L 62040,58570 Z"/>
       </g>
      </g>
      <g class="com.sun.star.drawing.ClosedBezierShape">
       <g id="id48">
        <rect class="BoundingBox" stroke="none" fill="none" x="56748" y="56473" width="2150" height="2261"/>
        <path fill="rgb(212,234,107)" stroke="none" d="M 58881,58197 C 58894,57901 58900,57392 58894,57066 L 58882,56473 58658,56788 C 58484,57033 58366,57154 58135,57325 57873,57519 57779,57564 57360,57700 57098,57784 56853,57853 56816,57853 56754,57853 56748,57882 56748,58153 56748,58318 56752,58454 56757,58456 56778,58462 58747,58728 58799,58732 58850,58735 58860,58666 58881,58197 Z"/>
       </g>
      </g>
      <g class="com.sun.star.drawing.ClosedBezierShape">
       <g id="id49">
        <rect class="BoundingBox" stroke="none" fill="none" x="53838" y="55966" width="2135" height="2383"/>
        <path fill="rgb(212,234,107)" stroke="none" d="M 55972,58072 L 55972,57798 55747,57738 C 55624,57705 55374,57590 55192,57482 54730,57210 54407,56881 54100,56372 L 53856,55966 53848,56892 C 53844,57401 53840,57877 53839,57949 L 53838,58080 54808,58210 C 55341,58281 55822,58341 55875,58343 L 55972,58347 55972,58072 Z"/>
       </g>
      </g>
      <g class="com.sun.star.drawing.ClosedBezierShape">
       <g id="id50">
        <rect class="BoundingBox" stroke="none" fill="none" x="50821" y="55772" width="2083" height="2185"/>
        <path fill="rgb(212,234,107)" stroke="none" d="M 52892,55772 C 52886,55772 52789,55903 52676,56063 52365,56504 52026,56744 51446,56932 51201,57012 50960,57077 50911,57077 50822,57077 50821,57079 50821,57377 50821,57542 50825,57678 50830,57679 50845,57684 52812,57951 52859,57955 52893,57958 52903,57719 52903,56866 52903,56264 52898,55772 52892,55772 Z"/>
       </g>
      </g>
      <g class="com.sun.star.drawing.ClosedBezierShape">
       <g id="id51">
        <rect class="BoundingBox" stroke="none" fill="none" x="60546" y="53084" width="3880" height="4731"/>
        <path fill="rgb(175,208,149)" stroke="none" d="M 63978,57122 C 64691,56151 64535,54716 63613,53769 63082,53224 62289,52956 61759,53143 61312,53301 60862,53815 60662,54396 60556,54704 60547,54767 60546,55172 60546,55578 60555,55642 60662,55966 60821,56445 61053,56822 61393,57150 61714,57460 61980,57622 62354,57734 62670,57828 62955,57839 63171,57764 63415,57681 63783,57387 63978,57122 Z"/>
       </g>
      </g>
      <g class="com.sun.star.drawing.ClosedBezierShape">
       <g id="id52">
        <rect class="BoundingBox" stroke="none" fill="none" x="48035" y="55260" width="2051" height="2312"/>
        <path fill="rgb(212,234,107)" stroke="none" d="M 50073,57301 L 50063,57031 49851,56973 C 49735,56941 49489,56825 49305,56716 48895,56472 48538,56098 48238,55598 L 48035,55260 48035,56292 C 48034,57094 48044,57325 48079,57326 48103,57326 48512,57380 48987,57445 49462,57510 49904,57565 49967,57567 L 50084,57571 50073,57301 Z"/>
       </g>
      </g>
      <g class="com.sun.star.drawing.ClosedBezierShape">
       <g id="id53">
        <rect class="BoundingBox" stroke="none" fill="none" x="45107" y="55102" width="1976" height="2082"/>
        <path fill="rgb(212,234,107)" stroke="none" d="M 47082,56142 C 47082,55570 47076,55102 47069,55102 47062,55102 46975,55218 46877,55360 46612,55743 46255,56006 45776,56170 45571,56241 45337,56309 45255,56322 L 45107,56345 45107,56639 45107,56932 45256,56954 C 45786,57030 46904,57176 46985,57179 L 47082,57183 47082,56142 Z"/>
       </g>
      </g>
      <g class="com.sun.star.drawing.ClosedBezierShape">
       <g id="id54">
        <rect class="BoundingBox" stroke="none" fill="none" x="54510" y="52385" width="3735" height="4651"/>
        <path fill="rgb(175,208,149)" stroke="none" d="M 58123,55790 C 58235,55489 58241,55446 58243,54996 58245,54571 58234,54485 58147,54202 57825,53161 56929,52385 56051,52385 55768,52385 55598,52451 55323,52667 54746,53121 54435,53915 54525,54708 54597,55342 54866,55907 55314,56365 55838,56901 56578,57160 57062,56976 57499,56810 57919,56340 58123,55790 Z"/>
       </g>
      </g>
      <g class="com.sun.star.drawing.ClosedBezierShape">
       <g id="id55">
        <rect class="BoundingBox" stroke="none" fill="none" x="42502" y="54778" width="1866" height="2051"/>
        <path fill="rgb(212,234,107)" stroke="none" d="M 44366,56567 L 44366,56303 44163,56246 C 43641,56098 42947,55539 42661,55037 L 42514,54778 42504,55668 C 42499,56158 42503,56567 42514,56578 42532,56596 44122,56819 44286,56827 44362,56830 44366,56818 44366,56567 Z"/>
       </g>
      </g>
      <g class="com.sun.star.drawing.ClosedBezierShape">
       <g id="id56">
        <rect class="BoundingBox" stroke="none" fill="none" x="48691" y="51705" width="3592" height="4558"/>
        <path fill="rgb(175,208,149)" stroke="none" d="M 51871,55603 C 52550,54665 52368,53188 51467,52310 51032,51887 50470,51652 50045,51715 49780,51754 49744,51771 49475,51972 49187,52187 48957,52512 48803,52919 48698,53198 48692,53242 48691,53708 48689,54154 48699,54233 48789,54520 49043,55327 49672,56006 50345,56200 50593,56271 50972,56283 51143,56225 51333,56160 51686,55859 51871,55603 Z"/>
       </g>
      </g>
      <g class="com.sun.star.drawing.ClosedBezierShape">
       <g id="id57">
        <rect class="BoundingBox" stroke="none" fill="none" x="43015" y="51046" width="3476" height="4508"/>
        <path fill="rgb(175,208,149)" stroke="none" d="M 45378,55497 C 45619,55400 45938,55124 46110,54864 46727,53937 46579,52595 45761,51691 45331,51216 44591,50938 44150,51085 43916,51163 43565,51466 43381,51749 43118,52153 43017,52510 43015,53038 43015,53416 43026,53499 43125,53814 43384,54637 43982,55283 44670,55484 44969,55571 45184,55575 45378,55497 Z"/>
       </g>
      </g>
      <g class="com.sun.star.drawing.ClosedBezierShape">
       <g id="id58">
        <rect class="BoundingBox" stroke="none" fill="none" x="62876" y="50320" width="2104" height="3607"/>
        <path fill="rgb(212,234,107)" stroke="none" d="M 64978,50533 L 63959,50423 C 63398,50362 62935,50316 62929,50321 62923,50327 62909,50774 62897,51314 L 62876,52297 63119,52362 C 63529,52471 63989,52759 64355,53135 64529,53315 64734,53567 64811,53697 64887,53826 64953,53929 64957,53925 64960,53922 64966,53157 64971,52226 L 64978,50533 Z"/>
       </g>
      </g>
      <g class="com.sun.star.drawing.ClosedBezierShape">
       <g id="id59">
        <rect class="BoundingBox" stroke="none" fill="none" x="59887" y="49979" width="2224" height="3721"/>
        <path fill="rgb(212,234,107)" stroke="none" d="M 61428,52420 C 61666,52343 61917,52280 61985,52280 L 62110,52280 62110,51257 62110,50235 62031,50218 C 61987,50209 61555,50160 61070,50111 60585,50061 60120,50011 60038,49999 L 59888,49979 59888,51839 59888,53699 60133,53355 C 60334,53074 60436,52969 60688,52785 60950,52594 61062,52539 61428,52420 Z"/>
       </g>
      </g>
      <g class="com.sun.star.drawing.ClosedBezierShape">
       <g id="id60">
        <rect class="BoundingBox" stroke="none" fill="none" x="56783" y="49669" width="2148" height="3781"/>
        <path fill="rgb(212,234,107)" stroke="none" d="M 58924,49893 C 58909,49878 56992,49669 56870,49669 L 56783,49669 56783,50637 56783,51604 56974,51660 C 57079,51690 57175,51715 57188,51715 57200,51715 57364,51804 57553,51912 58015,52177 58370,52531 58672,53025 58797,53231 58904,53421 58908,53448 58913,53475 58921,52689 58926,51701 58932,50713 58930,49899 58924,49893 Z"/>
       </g>
      </g>
      <g class="com.sun.star.drawing.ClosedBezierShape">
       <g id="id61">
        <rect class="BoundingBox" stroke="none" fill="none" x="53858" y="49356" width="2150" height="3638"/>
        <path fill="rgb(212,234,107)" stroke="none" d="M 55382,51720 C 55627,51640 55868,51575 55918,51575 L 56007,51575 56007,50574 56007,49573 55840,49552 C 55348,49490 53921,49346 53912,49357 53905,49364 53891,50185 53879,51181 L 53858,52993 54095,52657 C 54281,52393 54396,52272 54634,52093 54899,51893 54991,51847 55382,51720 Z"/>
       </g>
      </g>
      <g class="com.sun.star.drawing.ClosedBezierShape">
       <g id="id62">
        <rect class="BoundingBox" stroke="none" fill="none" x="50856" y="49034" width="2078" height="3674"/>
        <path fill="rgb(212,234,107)" stroke="none" d="M 52922,49253 C 52902,49233 51141,49037 50971,49035 L 50857,49034 50857,49984 50857,50934 51047,50989 C 51152,51020 51249,51045 51263,51045 51276,51045 51432,51131 51610,51235 52034,51486 52461,51922 52728,52378 L 52920,52707 52930,50988 C 52935,50043 52931,49262 52922,49253 Z"/>
       </g>
      </g>
      <g class="com.sun.star.drawing.ClosedBezierShape">
       <g id="id63">
        <rect class="BoundingBox" stroke="none" fill="none" x="48036" y="48728" width="2082" height="3517"/>
        <path fill="rgb(212,234,107)" stroke="none" d="M 49898,50935 L 50116,50890 50116,49909 C 50116,49311 50103,48928 50082,48928 50064,48928 49609,48881 49071,48823 48533,48764 48087,48722 48081,48729 48061,48749 48021,52244 48041,52244 48051,52244 48151,52110 48264,51946 48628,51415 49157,51088 49898,50935 Z"/>
       </g>
      </g>
      <g class="com.sun.star.drawing.ClosedBezierShape">
       <g id="id64">
        <rect class="BoundingBox" stroke="none" fill="none" x="45141" y="48395" width="1973" height="3594"/>
        <path fill="rgb(212,234,107)" stroke="none" d="M 46268,48523 C 45813,48475 45374,48426 45292,48415 L 45142,48395 45142,49345 45142,50295 45357,50355 C 45905,50509 46582,51082 46926,51684 L 47100,51988 47109,50311 C 47114,49389 47113,48630 47106,48623 47100,48617 46722,48572 46268,48523 Z"/>
       </g>
      </g>
      <g class="com.sun.star.drawing.ClosedBezierShape">
       <g id="id65">
        <rect class="BoundingBox" stroke="none" fill="none" x="42531" y="48114" width="1838" height="3267"/>
        <path fill="rgb(212,234,107)" stroke="none" d="M 43052,50782 C 43336,50558 43769,50367 44162,50294 L 44367,50256 44357,49284 44348,48313 43607,48235 C 43200,48192 42791,48148 42699,48136 L 42531,48114 42532,49747 42532,51380 42660,51186 C 42733,51076 42902,50902 43052,50782 Z"/>
       </g>
      </g>
      <g class="com.sun.star.drawing.ClosedBezierShape">
       <g id="id66">
        <rect class="BoundingBox" stroke="none" fill="none" x="62920" y="46152" width="2103" height="3131"/>
        <path fill="rgb(255,245,206)" stroke="none" d="M 65011,48223 C 65016,47641 65020,46978 65020,46750 L 65021,46336 64002,46237 C 63442,46182 62977,46145 62968,46153 62960,46162 62943,46822 62932,47619 62911,49030 62912,49069 62978,49072 63015,49073 63451,49119 63945,49174 64440,49229 64880,49275 64924,49277 L 65003,49281 65011,48223 Z"/>
       </g>
      </g>
      <g class="com.sun.star.drawing.ClosedBezierShape">
       <g id="id67">
        <rect class="BoundingBox" stroke="none" fill="none" x="59923" y="45859" width="2225" height="3106"/>
        <path fill="rgb(255,245,206)" stroke="none" d="M 62137,47509 L 62128,46055 61158,45959 C 60624,45907 60128,45863 60055,45862 L 59923,45859 59923,47306 C 59923,48438 59933,48752 59967,48754 59991,48755 60408,48801 60893,48856 61378,48910 61859,48957 61961,48959 L 62146,48964 62137,47509 Z"/>
       </g>
      </g>
      <g class="com.sun.star.drawing.ClosedBezierShape">
       <g id="id68">
        <rect class="BoundingBox" stroke="none" fill="none" x="56819" y="45534" width="2153" height="3113"/>
        <path fill="rgb(255,245,206)" stroke="none" d="M 58971,47202 L 58971,45758 58821,45738 C 58738,45727 58329,45686 57912,45648 57495,45609 57078,45568 56986,45556 L 56819,45535 56819,46982 56819,48429 57039,48452 C 57160,48464 57593,48511 58000,48556 58408,48601 58793,48639 58856,48642 L 58971,48646 58971,47202 Z"/>
       </g>
      </g>
      <g class="com.sun.star.drawing.ClosedBezierShape">
       <g id="id69">
        <rect class="BoundingBox" stroke="none" fill="none" x="53888" y="45277" width="2156" height="3053"/>
        <path fill="rgb(255,245,206)" stroke="none" d="M 56043,46902 L 56043,45475 55893,45455 C 55585,45413 53944,45265 53931,45278 53912,45296 53876,48116 53894,48119 54086,48148 55756,48321 55875,48324 L 56043,48329 56043,46902 Z"/>
       </g>
      </g>
      <g class="com.sun.star.drawing.ClosedBezierShape">
       <g id="id70">
        <rect class="BoundingBox" stroke="none" fill="none" x="50892" y="44971" width="2080" height="3041"/>
        <path fill="rgb(255,245,206)" stroke="none" d="M 52955,46697 C 52969,45974 52975,45335 52968,45277 L 52956,45171 52197,45097 C 51780,45056 51316,45011 51165,44997 L 50892,44971 50892,46385 C 50892,47163 50896,47801 50901,47802 50933,47814 52699,48004 52802,48007 L 52930,48011 52955,46697 Z"/>
       </g>
      </g>
      <g class="com.sun.star.drawing.ClosedBezierShape">
       <g id="id71">
        <rect class="BoundingBox" stroke="none" fill="none" x="48070" y="44687" width="2047" height="3043"/>
        <path fill="rgb(255,245,206)" stroke="none" d="M 50116,46318 L 50116,44908 50037,44891 C 49993,44882 49600,44841 49163,44801 48727,44761 48302,44719 48220,44708 L 48070,44687 48070,46102 C 48070,47425 48074,47517 48132,47519 48166,47521 48590,47566 49075,47621 49560,47675 49993,47722 50037,47724 L 50116,47729 50116,46318 Z"/>
       </g>
      </g>
      <g class="com.sun.star.drawing.ClosedBezierShape">
       <g id="id72">
        <rect class="BoundingBox" stroke="none" fill="none" x="45142" y="44411" width="1994" height="3001"/>
        <path fill="rgb(255,245,206)" stroke="none" d="M 47125,46300 C 47130,45689 47134,45058 47134,44898 L 47135,44607 46360,44532 C 45934,44490 45485,44446 45364,44434 L 45142,44411 45142,45805 C 45142,46572 45146,47201 45151,47203 45174,47210 46935,47403 47020,47407 L 47117,47411 47125,46300 Z"/>
       </g>
      </g>
      <g class="com.sun.star.drawing.ClosedBezierShape">
       <g id="id73">
        <rect class="BoundingBox" stroke="none" fill="none" x="42531" y="44165" width="1867" height="2953"/>
        <path fill="rgb(255,245,206)" stroke="none" d="M 44393,45727 C 44398,44965 44398,44342 44393,44342 44387,44342 43986,44302 43501,44254 43016,44206 42600,44166 42575,44166 42541,44166 42531,44467 42531,45553 L 42531,46940 43387,47030 C 43857,47080 44274,47119 44313,47116 44382,47112 44384,47083 44393,45727 Z"/>
       </g>
      </g>
      <g class="com.sun.star.drawing.ClosedBezierShape">
       <g id="id74">
        <rect class="BoundingBox" stroke="none" fill="none" x="59959" y="35743" width="5164" height="9342"/>
        <path fill="rgb(247,209,213)" stroke="none" d="M 65041,44651 C 65043,44413 65064,42393 65087,40162 65110,37931 65125,36099 65120,36091 65110,36076 63405,35950 63177,35948 L 63027,35946 63027,36387 63027,36827 63169,36899 C 63274,36953 63310,36992 63310,37056 63310,37103 63183,37628 63027,38224 62872,38819 62745,39314 62745,39322 62745,39330 62687,39332 62616,39326 L 62487,39315 62230,38257 C 62088,37675 61972,37143 61971,37075 61970,36964 61984,36946 62111,36893 L 62251,36833 62251,36359 62251,35884 62031,35863 C 61450,35807 60061,35726 60041,35746 60016,35771 59939,44582 59965,44607 59973,44616 60400,44663 60913,44711 61426,44759 61921,44807 62013,44818 L 62181,44839 62181,44525 62181,44212 62040,44148 C 61930,44099 61899,44065 61899,43997 61899,43949 62011,43479 62148,42953 62285,42427 62413,41936 62432,41862 62465,41734 62473,41728 62596,41739 L 62725,41749 62981,42808 C 63121,43390 63237,43918 63238,43981 63239,44083 63223,44102 63098,44152 L 62957,44209 62957,44558 C 62957,44866 62964,44907 63019,44909 63053,44910 63446,44948 63892,44993 64338,45038 64779,45077 64871,45079 L 65038,45083 65041,44651 Z"/>
       </g>
      </g>
      <g class="com.sun.star.drawing.ClosedBezierShape">
       <g id="id75">
        <rect class="BoundingBox" stroke="none" fill="none" x="53929" y="35310" width="5095" height="9204"/>
        <path fill="rgb(247,209,213)" stroke="none" d="M 58983,44457 C 58993,44423 59006,42427 59012,40021 L 59023,35647 58159,35588 C 57684,35556 57204,35521 57092,35512 L 56889,35494 56889,35944 56889,36394 57030,36458 C 57123,36500 57171,36544 57171,36589 57171,36642 56695,38538 56621,38777 56608,38820 56566,38839 56482,38839 56374,38839 56360,38827 56328,38707 56185,38164 55831,36652 55831,36586 55831,36524 55864,36492 55972,36450 L 56113,36394 56113,35925 56113,35457 55963,35438 C 55754,35411 54292,35311 54116,35311 L 53971,35311 53945,39670 C 53930,42068 53925,44036 53933,44044 53942,44052 54418,44103 54992,44157 L 56036,44256 56056,44132 C 56068,44063 56077,43932 56077,43840 56078,43681 56071,43670 55937,43602 55824,43544 55795,43510 55795,43433 55795,43380 55918,42857 56068,42270 L 56342,41203 56466,41203 56590,41203 56846,42253 C 56986,42830 57101,43354 57101,43417 57101,43514 57081,43542 56980,43590 56861,43647 56859,43650 56835,43941 56806,44291 56820,44342 56950,44345 57004,44346 57413,44384 57859,44429 58906,44534 58961,44535 58983,44457 Z"/>
       </g>
      </g>
      <g class="com.sun.star.drawing.ClosedBezierShape">
       <g id="id76">
        <rect class="BoundingBox" stroke="none" fill="none" x="48087" y="34892" width="4919" height="9064"/>
        <path fill="rgb(247,209,213)" stroke="none" d="M 52989,40453 C 53003,38527 53009,36563 53002,36087 L 52991,35223 52180,35164 C 51733,35131 51269,35103 51148,35102 L 50927,35100 50927,35522 50927,35945 51068,36017 C 51167,36067 51210,36112 51210,36165 51210,36269 50683,38320 50647,38357 50631,38373 50573,38381 50518,38374 L 50418,38363 50163,37322 C 50022,36750 49907,36232 49906,36172 49904,36077 49922,36056 50045,36007 L 50186,35952 50186,35494 50186,35036 49984,35015 C 49635,34979 48136,34881 48125,34893 48119,34900 48109,36842 48101,39209 L 48087,43513 48916,43589 C 49372,43631 49837,43676 49948,43688 L 50151,43711 50151,43416 50151,43121 50027,43061 C 49816,42961 49806,43052 50193,41545 L 50409,40705 50535,40716 50661,40726 50917,41767 C 51058,42339 51173,42850 51174,42901 51174,42977 51148,43004 51033,43051 L 50892,43107 50892,43442 C 50892,43766 50895,43778 50971,43781 51015,43782 51408,43819 51845,43864 52281,43908 52712,43947 52802,43950 L 52965,43954 52989,40453 Z"/>
       </g>
      </g>
      <g class="com.sun.star.drawing.ClosedBezierShape">
       <g id="id77">
        <rect class="BoundingBox" stroke="none" fill="none" x="42531" y="34491" width="4637" height="8935"/>
        <path fill="rgb(247,209,213)" stroke="none" d="M 47159,39130 C 47165,36768 47168,34830 47166,34825 47162,34816 45347,34678 45221,34677 45188,34676 45177,34784 45177,35100 L 45177,35524 45301,35583 C 45408,35634 45424,35659 45424,35768 45424,35837 45307,36346 45165,36899 L 44907,37904 44786,37904 44666,37904 44411,36881 C 44271,36318 44156,35810 44156,35751 44154,35659 44173,35636 44277,35598 L 44401,35554 44401,35085 44401,34617 43792,34575 C 43458,34552 43048,34524 42881,34512 L 42578,34491 42555,35368 C 42542,35851 42531,37766 42531,39624 L 42531,43002 42628,43003 C 42682,43004 43095,43040 43547,43084 43999,43127 44376,43156 44385,43147 44394,43138 44401,43010 44401,42861 L 44401,42591 44278,42533 C 44169,42481 44154,42458 44153,42341 44152,42268 44266,41759 44406,41210 L 44660,40211 44786,40222 44911,40232 45166,41273 C 45306,41846 45422,42348 45423,42389 45424,42445 45387,42480 45283,42521 L 45142,42578 45142,42897 C 45142,43120 45155,43220 45186,43231 45224,43244 46858,43409 47071,43421 L 47147,43425 47159,39130 Z"/>
       </g>
      </g>
      <g class="com.sun.star.drawing.ClosedBezierShape">
       <g id="id78">
        <rect class="BoundingBox" stroke="none" fill="none" x="63064" y="13798" width="2257" height="21088"/>
        <path fill="rgb(222,220,230)" stroke="none" d="M 65145,34510 C 65145,34301 65184,30202 65232,25399 65280,20597 65319,16406 65319,16086 L 65318,15504 64433,14765 C 63946,14358 63481,13974 63399,13912 L 63250,13798 63227,15339 C 63189,17919 63049,34711 63065,34726 63074,34734 63533,34772 64086,34810 64639,34848 65103,34882 65118,34884 65132,34887 65144,34718 65145,34510 Z"/>
       </g>
      </g>
      <g class="com.sun.star.drawing.ClosedBezierShape">
       <g id="id79">
        <rect class="BoundingBox" stroke="none" fill="none" x="60037" y="11576" width="2426" height="23103"/>
        <path fill="rgb(222,220,230)" stroke="none" d="M 62264,33928 C 62276,33515 62317,29067 62356,24041 62395,19016 62434,14516 62444,14040 L 62462,13176 62136,12929 C 61640,12553 60239,11561 60225,11576 60210,11591 60023,34507 60038,34521 60049,34533 61859,34666 62098,34673 L 62244,34677 62264,33928 Z"/>
       </g>
      </g>
      <g class="com.sun.star.drawing.ClosedBezierShape">
       <g id="id80">
        <rect class="BoundingBox" stroke="none" fill="none" x="56904" y="9605" width="2353" height="24862"/>
        <path fill="rgb(222,220,230)" stroke="none" d="M 59076,33575 C 59076,32381 59208,14992 59234,12717 L 59255,10918 58842,10654 C 58615,10508 58127,10213 57757,9997 L 57083,9605 57073,10544 C 57060,11778 56899,34305 56904,34313 56908,34321 58759,34455 58944,34461 L 59076,34466 59076,33575 Z"/>
       </g>
      </g>
      <g class="com.sun.star.drawing.ClosedBezierShape">
       <g id="id81">
        <rect class="BoundingBox" stroke="none" fill="none" x="53993" y="8118" width="2309" height="26137"/>
        <path fill="rgb(222,220,230)" stroke="none" d="M 56126,33540 C 56137,33147 56171,28690 56201,23636 56231,18581 56266,13262 56278,11814 L 56301,9182 55722,8879 C 55403,8712 54916,8473 54640,8347 L 54138,8118 54135,8618 C 54133,8894 54097,14743 54055,21616 54013,28489 53987,34114 53996,34116 54069,34129 55718,34245 55889,34249 L 56105,34254 56126,33540 Z"/>
       </g>
      </g>
      <g class="com.sun.star.drawing.ClosedBezierShape">
       <g id="id82">
        <rect class="BoundingBox" stroke="none" fill="none" x="50962" y="6953" width="2226" height="27089"/>
        <path fill="rgb(222,220,230)" stroke="none" d="M 53044,32339 C 53044,30342 53137,13210 53166,9945 L 53186,7701 52347,7382 C 51569,7086 51108,6930 51087,6956 51077,6969 50960,31134 50962,32827 L 50963,33924 51765,33977 C 52207,34007 52675,34033 52806,34036 L 53044,34041 53044,32339 Z"/>
       </g>
      </g>
      <g class="com.sun.star.drawing.ClosedBezierShape">
       <g id="id83">
        <rect class="BoundingBox" stroke="none" fill="none" x="48122" y="6164" width="2170" height="27703"/>
        <path fill="rgb(222,220,230)" stroke="none" d="M 50199,30153 C 50246,22405 50306,6704 50288,6686 50263,6661 48549,6218 48362,6188 L 48212,6164 48210,9106 C 48209,10724 48187,16921 48162,22877 48136,28834 48119,33712 48123,33717 48131,33727 49805,33852 50049,33861 L 50176,33866 50199,30153 Z"/>
       </g>
      </g>
      <g class="com.sun.star.drawing.ClosedBezierShape">
       <g id="id84">
        <rect class="BoundingBox" stroke="none" fill="none" x="45194" y="5719" width="2081" height="27935"/>
        <path fill="rgb(222,220,230)" stroke="none" d="M 47189,31263 C 47189,29949 47204,25349 47222,21043 47240,16735 47259,11585 47264,9597 L 47274,5982 47151,5955 C 46978,5917 45282,5705 45269,5720 45249,5745 45178,33489 45198,33509 45218,33529 46627,33638 47003,33648 L 47188,33653 47189,31263 Z"/>
       </g>
      </g>
      <g class="com.sun.star.drawing.ClosedBezierShape">
       <g id="id85">
        <rect class="BoundingBox" stroke="none" fill="none" x="42570" y="5626" width="1921" height="27852"/>
        <path fill="rgb(222,220,230)" stroke="none" d="M 44455,21440 C 44470,14819 44483,8560 44485,7532 L 44489,5662 44101,5638 C 43888,5624 43465,5622 43162,5634 L 42611,5654 42586,18710 C 42572,25892 42567,32123 42573,32560 L 42584,33353 43396,33410 C 43842,33441 44257,33469 44317,33472 L 44427,33477 44455,21440 Z"/>
       </g>
      </g>
     </g>
    </g>
   </g>
  </g>
 </g>
</svg>